<svg xmlns="http://www.w3.org/2000/svg" xmlns:xlink="http://www.w3.org/1999/xlink" version="1.1" width="100%" height="100%" viewBox="0 0 256 256" xml:space="preserve">

<defs>
</defs>
<g style="stroke: none; stroke-width: 0; stroke-dasharray: none; stroke-linecap: butt; stroke-linejoin: miter; stroke-miterlimit: 10; fill: none; fill-rule: nonzero; opacity: 1;" transform="translate(1.4065934065934016 1.4065934065934016) scale(2.81 2.81)" >
	<path d="M 3.5 90 c -0.914 0 -1.809 -0.358 -2.476 -1.025 c -0.931 -0.931 -1.261 -2.306 -0.853 -3.558 l 5.847 -17.972 C 2.076 60.624 0 52.899 0 45 C 0 20.187 20.187 0 45 0 c 24.813 0 45 20.187 45 45 c 0 24.813 -20.187 45 -45 45 c -7.899 0 -15.624 -2.076 -22.446 -6.019 L 4.583 89.828 C 4.228 89.944 3.862 90 3.5 90 z" style="stroke: none; stroke-width: 1; stroke-dasharray: none; stroke-linecap: butt; stroke-linejoin: miter; stroke-miterlimit: 10; fill: rgb(255,192,51); fill-rule: nonzero; opacity: 1;" transform=" matrix(1 0 0 1 0 0) " stroke-linecap="round" />
	<circle cx="48.449" cy="24.719" r="5.279" style="stroke: none; stroke-width: 1; stroke-dasharray: none; stroke-linecap: butt; stroke-linejoin: miter; stroke-miterlimit: 10; fill: rgb(255,255,255); fill-rule: nonzero; opacity: 1;" transform="  matrix(1 0 0 1 0 0) "/>
	<path d="M 52.305 65.506 c -3.826 0.658 -6.905 0.263 -6.275 -3.025 l 0.007 0.081 c 0.07 -0.343 0.158 -0.769 0.282 -1.201 c 0.261 -0.874 0.54 -1.815 0.877 -2.762 l 2.033 -5.812 c 0.335 -1.027 0.657 -2.061 0.956 -3.105 c 0.26 -1.05 0.53 -2.108 0.716 -3.194 c 0.173 -1.088 0.347 -2.19 0.356 -3.376 c 0.006 -0.598 0.006 -1.205 -0.087 -1.897 l -0.1 -0.548 c -0.046 -0.214 -0.102 -0.43 -0.179 -0.652 c -0.152 -0.442 -0.371 -0.9 -0.693 -1.347 c -0.616 -0.904 -1.722 -1.699 -2.848 -2.141 c -1.145 -0.471 -2.395 -0.681 -3.494 -0.687 c -2.187 -0.031 -4.004 0.536 -5.395 1.15 c -0.014 0.006 -0.027 0.012 -0.041 0.019 c -1.452 0.666 -2.292 2.211 -2.128 3.801 l 0 0 c 3.826 -0.658 6.905 -0.263 6.275 3.025 c -0.07 0.343 -0.158 0.769 -0.282 1.201 c -0.261 0.874 -0.54 1.815 -0.877 2.762 l -2.033 5.812 c -0.335 1.028 -0.657 2.061 -0.956 3.105 c -0.26 1.05 -0.53 2.108 -0.716 3.194 c -0.173 1.088 -0.347 2.19 -0.356 3.376 c -0.006 0.598 -0.006 1.205 0.087 1.897 l 0.1 0.548 c 0.046 0.214 0.102 0.43 0.179 0.652 c 0.153 0.442 0.371 0.9 0.693 1.347 c 0.616 0.904 1.722 1.699 2.848 2.141 c 1.145 0.471 2.395 0.681 3.494 0.687 c 2.187 0.031 4.004 -0.536 5.395 -1.15 c 0.014 -0.006 0.028 -0.013 0.042 -0.019 c 1.452 -0.666 2.292 -2.211 2.128 -3.801 L 52.305 65.506 z" style="stroke: none; stroke-width: 1; stroke-dasharray: none; stroke-linecap: butt; stroke-linejoin: miter; stroke-miterlimit: 10; fill: rgb(255,255,255); fill-rule: nonzero; opacity: 1;" transform=" matrix(1 0 0 1 0 0) " stroke-linecap="round" />
</g>
</svg>